<svg xmlns="http://www.w3.org/2000/svg" viewBox="0 0 64 64" fill="none">
  <defs>
    <linearGradient id="bg" x1="8" y1="6" x2="56" y2="58" gradientUnits="userSpaceOnUse">
      <stop stop-color="#1F8A70" />
      <stop offset="1" stop-color="#145A52" />
    </linearGradient>
  </defs>
  <rect width="64" height="64" rx="18" fill="url(#bg)" />
  <path
    d="M20 16c-4.5 4-7 9-7 14 0 4.8 1.6 8.3 3.3 11.1 1.3 2.1 2.4 4 2.8 5.9.8 3.6 2 5 3.7 5 1.8 0 2.7-2.4 3.4-4.4.8-2.3 1.4-4 2.8-4s2 1.7 2.8 4c.7 2 1.6 4.4 3.4 4.4 1.7 0 2.9-1.4 3.7-5 .4-1.9 1.5-3.8 2.8-5.9C49.4 38.3 51 34.8 51 30c0-5-2.5-10-7-14-4.5-4-8.7-3.3-12 0-3.3-3.3-7.5-4-12 0Z"
    fill="#FFF9F0"
  />
  <path
    d="M46.812 14 48 17.188 51.188 18.375 48 19.562 46.812 22.75 45.625 19.562 42.438 18.375 45.625 17.188 46.812 14Z"
    fill="#F2C14E"
  />
  <circle cx="21" cy="22" r="2.5" fill="#D7F2EA" />
</svg>
